HIERARCHY
ROOT hip
{
	OFFSET 0.000000 0.000000 0.000000
	CHANNELS 6 Xposition Yposition Zposition Xrotation Zrotation Yrotation 
	JOINT abdomen
	{
		OFFSET 0.000000 3.422050 0.000000
		CHANNELS 3 Xrotation Zrotation Yrotation 
		JOINT chest
		{
			OFFSET 0.000000 8.486693 -0.684411
			CHANNELS 3 Xrotation Zrotation Yrotation 
			JOINT neck
			{
				OFFSET 0.000000 10.266162 -0.273764
				CHANNELS 3 Xrotation Zrotation Yrotation 
				JOINT head
				{
					OFFSET 0.000000 3.148285 0.000000
					CHANNELS 3 Xrotation Zrotation Yrotation 
					End Site
					{
						OFFSET 0.000000 3.148289 0.000000
					}
				}
			}
			JOINT lCollar
			{
				OFFSET 3.422053 6.707223 -0.821293
				CHANNELS 3 Yrotation Zrotation Xrotation 
				JOINT lShldr
				{
					OFFSET 3.285171 0.000000 0.000000
					CHANNELS 3 Zrotation Yrotation Xrotation 
					JOINT lForeArm
					{
						OFFSET 10.129278 0.000000 0.000000
						CHANNELS 3 Yrotation Zrotation Xrotation 
						JOINT lHand
						{
							OFFSET 8.486692 0.000000 0.000000
							CHANNELS 3 Zrotation Yrotation Xrotation 
							End Site
							{
								OFFSET 4.106464 0.000000 0.000000
							}
						}
					}
				}
			}
			JOINT rCollar
			{
				OFFSET -3.558935 6.707223 -0.821293
				CHANNELS 3 Yrotation Zrotation Xrotation 
				JOINT rShldr
				{
					OFFSET -3.148289 0.000000 0.000000
					CHANNELS 3 Zrotation Yrotation Xrotation 
					JOINT rForeArm
					{
						OFFSET -10.266159 0.000000 0.000000
						CHANNELS 3 Yrotation Zrotation Xrotation 
						JOINT rHand
						{
							OFFSET -8.349810 0.000000 0.000000
							CHANNELS 3 Zrotation Yrotation Xrotation 
							End Site
							{
								OFFSET -4.106464 0.000000 0.000000
							}
						}
					}
				}
			}
		}
	}
	JOINT lThigh
	{
		OFFSET 5.338403 -1.642589 1.368821
		CHANNELS 3 Xrotation Zrotation Yrotation 
		JOINT lShin
		{
			OFFSET -2.053232 -20.121670 0.000000
			CHANNELS 3 Xrotation Zrotation Yrotation 
			JOINT lFoot
			{
				OFFSET 0.000000 -19.300380 -1.231939
				CHANNELS 3 Xrotation Yrotation Zrotation 
				End Site
				{
					OFFSET 0.000000 -2.463878 4.653993
				}
			}
		}
	}
	JOINT rThigh
	{
		OFFSET -5.338403 -1.642589 1.368821
		CHANNELS 3 Xrotation Zrotation Yrotation 
		JOINT rShin
		{
			OFFSET 2.053232 -20.121670 0.000000
			CHANNELS 3 Xrotation Zrotation Yrotation 
			JOINT rFoot
			{
				OFFSET 0.000000 -19.300380 -1.231939
				CHANNELS 3 Xrotation Yrotation Zrotation 
				End Site
				{
					OFFSET 0.000000 -2.463878 4.653993
				}
			}
		}
	}
}
MOTION
Frames: 12
Frame Time: 0.066530
0.000000 43.528500 0.000000 0.000000 0.000000 0.000000 0.000000 0.000000 0.000000 0.000000 0.000000 0.000000 0.000000 0.000000 0.000000 0.000000 0.000000 0.000000 0.000000 0.000000 0.000000 0.000000 0.000000 0.000000 0.000000 0.000000 0.000000 0.000000 0.000000 0.000000 0.000000 0.000000 0.000000 0.000000 0.000000 0.000000 0.000000 0.000000 0.000000 0.000000 0.000000 0.000000 0.000000 0.000000 0.000000 0.000000 0.000000 0.000000 0.000000 0.000000 0.000000 0.000000 0.000000 0.000000 0.000000 0.000000 0.000000 0.000000 0.000000 0.000000 
0.000000 9.997749 0.000000 -26.001497 0.000000 0.000000 29.998037 1.997883 -35.001030 19.998167 0.000000 0.000000 -0.271013 -0.945988 -0.003008 -10.002069 -0.003946 -26.001366 0.071690 0.000000 0.000000 14.001234 -49.002811 -22.001631 -97.016327 0.000000 0.000000 0.100298 -0.123637 -0.582375 0.000000 0.000000 0.000000 -30.000832 37.995827 -47.000263 0.000000 0.000000 0.000000 0.000000 0.000000 0.000000 -110.024002 0.000000 0.000000 130.994461 -0.000002 0.000001 0.068189 0.000000 0.000000 -111.005257 -16.001534 0.001773 130.994461 -0.000002 0.000001 0.000000 0.000000 0.000000 
0.000000 9.997749 0.000000 -26.001497 0.000000 0.000000 29.998037 1.997883 -35.001030 19.998167 0.000000 0.000000 -0.527601 -1.876154 -0.080081 -10.002065 0.142195 -26.001379 0.071690 0.000000 0.000000 14.001234 -49.002811 -22.001631 -97.016327 0.000000 0.000000 0.132829 -0.278915 -1.127043 0.000000 0.000000 0.000000 -30.000832 37.995831 -47.000263 0.000000 0.000000 0.000000 0.000000 0.000000 0.000000 -110.024002 0.000000 0.000000 130.994461 -0.000002 0.000001 0.068189 0.000000 0.000000 -111.012581 -16.114582 -0.068008 130.994461 -0.000002 0.000001 0.000000 0.000000 0.000000 
0.000000 9.997749 0.000000 -26.001499 0.000000 0.000000 29.998037 1.997882 -35.001030 19.998167 0.000000 0.000000 -0.783741 -2.808973 -0.153209 -10.002059 0.288384 -26.001390 0.071690 0.000000 0.000000 14.001234 -49.002811 -22.001631 -97.016327 0.000000 0.000000 0.166921 -0.434260 -1.673161 0.000000 0.000000 0.000000 -30.000832 37.995827 -47.000267 0.000000 0.000000 0.000000 0.000000 0.000000 0.000000 -110.024010 0.000000 0.000000 130.994461 -0.000002 0.000001 0.068189 0.000000 0.000000 -111.019745 -16.227654 -0.137823 130.994461 -0.000002 0.000001 0.000000 0.000000 0.000000 
0.000000 9.997749 0.000000 -26.001499 0.000000 0.000000 29.998037 1.997883 -35.001030 19.998167 0.000000 0.000000 -1.039525 -3.744301 -0.222384 -10.002053 0.434622 -26.001402 0.071690 0.000000 0.000000 14.001234 -49.002811 -22.001631 -97.016327 0.000000 0.000000 0.202582 -0.589651 -2.220716 0.000000 0.000000 0.000000 -30.000832 37.995831 -47.000263 0.000000 0.000000 0.000000 0.000000 0.000000 0.000000 -110.024002 0.000000 0.000000 130.994461 -0.000002 0.000001 0.068189 0.000000 0.000000 -111.026802 -16.340746 -0.207671 130.994461 -0.000002 0.000001 0.000000 0.000000 0.000000 
0.000000 9.997749 0.000000 -26.001497 0.000000 0.000000 29.998037 1.997882 -35.001030 19.998167 0.000000 0.000000 -1.295045 -4.681993 -0.287591 -10.002048 0.580907 -26.001417 0.071690 0.000000 0.000000 14.001234 -49.002811 -22.001631 -97.016327 0.000000 0.000000 0.239818 -0.745064 -2.769693 0.000000 0.000000 0.000000 -30.000832 37.995827 -47.000263 0.000000 0.000000 0.000000 0.000000 0.000000 0.000000 -110.024002 0.000000 0.000000 130.994461 -0.000002 0.000001 0.068189 0.000000 0.000000 -111.033714 -16.453867 -0.277555 130.994461 -0.000002 0.000001 0.000000 0.000000 0.000000 
0.000000 9.997749 0.000000 -26.001497 0.000000 0.000000 29.998037 1.997882 -35.001030 19.998167 0.000000 0.000000 -1.550396 -5.621903 -0.348814 -10.002044 0.727239 -26.001431 0.071690 0.000000 0.000000 14.001234 -49.002811 -22.001631 -97.016319 0.000000 0.000000 0.278636 -0.900475 -3.320078 0.000000 0.000000 0.000000 -30.000835 37.995834 -47.000267 0.000000 0.000000 0.000000 0.000000 0.000000 0.000000 -110.024002 0.000000 0.000000 130.994446 -0.000002 0.000001 0.068189 0.000000 0.000000 -111.040474 -16.567005 -0.347475 130.994461 -0.000002 0.000001 0.000000 0.000000 0.000000 
0.000000 9.997749 0.000000 -26.001495 0.000000 0.000000 29.998037 1.997883 -35.001030 19.998167 0.000000 0.000000 -1.805673 -6.563881 -0.406033 -10.002034 0.873619 -26.001438 0.071690 0.000000 0.000000 14.001235 -49.002815 -22.001633 -97.016327 0.000000 0.000000 0.319041 -1.055862 -3.871858 0.000000 0.000000 0.000000 -30.000828 37.995819 -47.000256 0.000000 0.000000 0.000000 0.000000 0.000000 0.000000 -110.024002 0.000000 0.000000 130.994461 -0.000002 0.000001 0.068189 0.000000 0.000000 -111.047096 -16.680164 -0.417430 130.994461 -0.000002 0.000001 0.000000 0.000000 0.000000 
0.000000 9.997749 0.000000 -26.001497 0.000000 0.000000 29.998037 1.997883 -35.001026 19.998167 0.000000 0.000000 -2.060971 -7.507777 -0.459225 -10.002029 1.020045 -26.001451 0.071690 0.000000 0.000000 14.001234 -49.002804 -22.001631 -97.016327 0.000000 0.000000 0.361039 -1.211200 -4.425017 0.000000 0.000000 0.000000 -30.000828 37.995827 -47.000259 0.000000 0.000000 0.000000 0.000000 0.000000 0.000000 -110.024002 0.000000 0.000000 130.994461 -0.000002 0.000001 0.068189 0.000000 0.000000 -111.053596 -16.793346 -0.487421 130.994461 -0.000002 0.000001 0.000000 0.000000 0.000000 
0.000000 9.997749 0.000000 -26.001495 0.000000 0.000000 29.998037 1.997883 -35.001030 19.998165 0.000000 0.000000 -2.316389 -8.453437 -0.508365 -10.002022 1.166516 -26.001455 0.071690 0.000000 0.000000 14.001234 -49.002811 -22.001631 -97.016327 0.000000 0.000000 0.404635 -1.366466 -4.979541 0.000000 0.000000 0.000000 -30.000832 37.995827 -47.000263 0.000000 0.000000 0.000000 0.000000 0.000000 0.000000 -110.024002 0.000000 0.000000 130.994446 -0.000002 0.000001 0.068189 0.000000 0.000000 -111.059944 -16.906551 -0.557448 130.994461 -0.000002 0.000001 0.000000 0.000000 0.000000 
0.000000 9.997749 0.000000 -26.001497 0.000000 0.000000 29.998037 1.997883 -35.001030 19.998167 0.000000 0.000000 -2.572026 -9.400708 -0.553422 -10.002019 1.313033 -26.001472 0.071690 0.000000 0.000000 14.001234 -49.002804 -22.001631 -97.016327 0.000000 0.000000 0.449833 -1.521635 -5.535413 0.000000 0.000000 0.000000 -30.000832 37.995827 -47.000263 0.000000 0.000000 0.000000 0.000000 0.000000 0.000000 -110.024002 0.000000 0.000000 130.994461 -0.000002 0.000001 0.068189 0.000000 0.000000 -111.066139 -17.019766 -0.627511 130.994461 -0.000002 0.000001 0.000000 0.000000 0.000000 
0.000000 9.997749 0.000000 -26.001497 0.000000 0.000000 29.998037 1.997883 -35.001030 19.998167 0.000000 0.000000 -2.827986 -10.349439 -0.594365 -10.002011 1.459594 -26.001478 0.071690 0.000000 0.000000 14.001234 -49.002811 -22.001631 -97.016327 0.000000 0.000000 0.496639 -1.676683 -6.092619 0.000000 0.000000 0.000000 -30.000832 37.995827 -47.000263 0.000000 0.000000 0.000000 0.000000 0.000000 0.000000 -110.024002 0.000000 0.000000 130.994461 -0.000002 0.000001 0.068189 0.000000 0.000000 -111.072205 -17.133013 -0.697615 130.994461 -0.000002 0.000001 0.000000 0.000000 0.000000 
